<?xml version="1.0" encoding="utf-8"?>
<!-- Generator: Adobe Illustrator 27.2.0, SVG Export Plug-In . SVG Version: 6.00 Build 0)  -->
<svg version="1.1" id="Layer_1" xmlns="http://www.w3.org/2000/svg" xmlns:xlink="http://www.w3.org/1999/xlink" x="0px" y="0px"
	 viewBox="0 0 600 165.5" style="enable-background:new 0 0 600 165.5;" xml:space="preserve">
<style type="text/css">
	.st0{fill:#FFFFFF;}
</style>
<path class="st0" d="M429.5,43.8h14.9h1.2h27.8c8.7,0.1,15.4,1.3,20.2,3.7c4.8,2.3,8.2,5.2,10.1,8.5c1.9,3.3,2.8,6.5,2.7,9.6
	c-0.1,5-1.5,9.2-4.2,12.7c-2.7,3.4-6.2,6.5-10.4,9.1c-4.2,2.6-8.6,5.2-13.2,7.7c6.2,0,10.8,1.5,13.8,4.3c3,2.9,5.6,7.1,7.6,12.7
	c0.7,2,1.9,5.3,3.6,9.8l5.3,14.3l4.8,12.9l2.1,5.6c1.1,2.4,2.4,4.1,4,5c1.4,0.8,2.3,1.2,2.6,1.2h-18.7c0.3,0,1.1-0.5,2.2-1.4
	c1.3-1,1.6-2.8,0.8-5.4c-0.7-2-2-5.6-3.8-10.7c-1.9-5.1-3.8-10.4-5.8-15.9c-2-5.5-3.6-9.7-4.8-12.8c-2.6-6.8-7-16.8-16.9-16.8
	c-4.9,2.7-7.5,4.1-11.2,7.6c-3.8,3.5-6.3,7.9-7.6,13.1V153c-0.1,1.9,0.1,3.4,0.6,4.6c0.5,1.2,1.5,2.2,3.2,3.1h-15.8
	c1.7-0.9,2.8-1.9,3.2-3.1c0.5-1.2,0.7-2.7,0.6-4.6V53.9c0-5.6-1.9-7.5-4.4-7.5c-1.9,0-4.1,1.9-4.1,7.6v68.2
	c-0.1,8.5-2,15.7-5.5,21.4c-3.6,5.7-8.1,10-13.6,12.8c-5.5,2.9-11.2,4.3-17.2,4.3c-6.4,0.1-13-1.1-19.7-3.4
	c-6.8-2.4-12.5-6.4-17.2-12c-4.7-5.6-7.1-13.3-7.3-23.1V51.5c0.1-2-0.1-3.6-0.6-4.7c-0.5-1.2-1.5-2.2-3.2-3l15.9,0.1
	c-1.7,0.8-2.8,1.7-3.2,2.8c-0.5,1.2-0.7,2.8-0.6,4.7v69.8c0.2,8.4,2.2,15.1,6,20.2c3.8,5.1,8.5,8.7,14,11c5.5,2.3,10.9,3.3,16,3.3
	c9.2,0,31.9-6.1,31.9-36V53.5c0-2.8-0.3-5.1-1.2-6.7C433.4,45.2,431.8,44.2,429.5,43.8z M456.5,111.6c3.9-17.6,40.9-28.4,40.9-48.1
	c0-14.5-17.8-15-26.1-15.2h-14.9V111.6z M20.5,12.1v83.6c6.2-25.4,54.2-34.3,54.2-63.2c0-16.5-23.6-20.1-34.5-20.4H20.5z
	 M105.3,113.8c-0.1-5.4-0.7-10.2-1.8-14.5l0-16.2c0.6,0.6,1.2,1.2,1.8,1.9c6.5,6.9,9.9,16.5,10.3,28.9c-0.3,12.3-3.3,21.8-9.1,28.7
	c-5.8,6.9-12.9,11.7-21.2,14.4c-8.3,2.7-16.3,4.1-24,4H4.9c2.1-1.1,3.5-2.4,4.1-3.9c0.6-1.6,0.9-3.6,1-6.2V16.4c0-2.5-0.4-4.6-1-6.2
	C8.4,8.6,7,7,4.9,5.9h38.2C54.8,6,63.9,8,70.3,11.1c6.4,3.1,10.8,6.9,13.3,11.3c2.4,4.4,3.6,8.7,3.5,12.7
	c-0.2,5.7-1.9,10.7-5.1,15.1c-3.2,4.4-7.1,8.2-11.5,11.4c-4.4,3.2-8.6,5.8-12.3,7.7c5.8-1.3,16.6-0.8,25,1.6
	c1.1,0.3,2.3,0.7,3.4,1.1v5.8c-4.3-2.2-8.8-3.9-12.1-5.1c-6.6-2.4-12.6-3.1-17.8-2.1c-0.7,0-1.3,0.2-2,0.7
	c-7.8,4-14.9,8.6-21.3,13.7c-6.4,5.1-10.7,11.7-12.8,19.9v51.3h33.2c16.8,0,36.6-6.9,42.4-13.5C101.9,136.2,105,126.5,105.3,113.8z
	 M550.5,118.9l35.4-70.7c0.6-1.6,0.7-2.7,0.2-3.4c-0.4-0.6-0.8-1-1.1-1l10,0c0,0-0.6,0.3-1.3,0.9c-0.6,0.5-1.3,1.3-1.9,2.4
	l-38.6,76.6V153c0,1.9,0.3,3.4,0.7,4.6c0.5,1.2,1.5,2.2,3.1,3.1h-15.7c1.7-0.9,2.8-1.9,3.2-3.1c0.5-1.2,0.7-2.7,0.6-4.6v-28
	l-39.9-73.8c-1.7-2.8-3.3-4.7-4.7-5.8c-1.3-1-2.3-1.5-2.3-1.5h17c-0.5,0-1.2,0.6-2,1.7c-0.8,1.2-0.7,3.1,0.6,5.6L550.5,118.9z
	 M312.5,157.4c12.7,0,23.4-5.2,27.8-10.2c4.4-5,6.7-12.3,7-21.9c-0.2-8.9-2.2-15.8-6-20.8c-3.8-5-8.2-8.4-13.2-10.1
	c-5-1.8-9.5-2.3-13.4-1.6c-0.5,0-1,0.2-1.5,0.5c-5.9,3.1-11.2,6.5-16.1,10.4c-4.8,3.9-8.1,8.9-9.7,15v38.7H312.5z M287.5,48.3v63.4
	c4.7-19.2,40.9-25.9,40.9-47.8c0-12.5-16.7-15.6-26.1-15.6H287.5z M161.1,43.8h15.5h0.7h16l72.6,97.4V53.7c0.1-2.9-0.3-5.1-1.1-6.8
	c-0.8-1.7-2.4-2.7-4.8-3.1h3.3h12.4h0.5h28.4c8.9,0.1,15.7,1.6,20.6,3.9c4.8,2.4,8.2,5.2,10,8.6c1.8,3.3,2.7,6.5,2.6,9.6
	c-0.1,4.3-1.4,8.1-3.8,11.4c-2.4,3.3-5.3,6.2-8.7,8.6c-3.4,2.4-6.5,4.4-9.3,5.9c4.4-1,9.7-0.6,16,1.2c6.3,1.8,11.9,5.3,16.8,10.5
	c4.9,5.2,7.5,12.5,7.8,21.8c-0.2,9.3-2.5,16.5-6.9,21.7c-4.4,5.2-9.5,8.6-15.8,10.7c-6.3,2.1-12.3,3.1-18.1,3h-39.7
	c1.6-0.8,2.6-1.8,3.1-3c0.5-1.2,0.7-2.7,0.7-4.7l-0.2-99.6c0-5.2-1.8-7-4.5-7c-2.4,0-4.7,1.7-4.7,8.1L270.2,161L186.9,48.8v102
	c-0.1,2.9,0.3,5.1,1.1,6.8c0.8,1.7,2.4,2.7,4.8,3.1h-16.1c2.3-0.4,3.9-1.5,4.7-3.1c0.8-1.7,1.2-3.9,1.2-6.8V55.6
	c0-2.8-0.3-5.1-1.2-6.7c-0.8-1.5-2.1-2.5-4.4-2.5c-2.2,0-3.6,1-4.4,2.5c-0.8,1.6-1.2,3.8-1.2,6.7v66.6c-0.1,8.5-2,15.7-5.5,21.4
	c-3.6,5.7-8.1,10-13.6,12.8s-11.2,4.3-17.2,4.3c-6.4,0.1-13-1.1-19.7-3.4c-4.1-1.4-7.8-3.5-11.2-6.1c2-1.6,3.7-3.2,5.1-4.9
	c2.9,2.7,6.1,4.8,9.8,6.3c5.5,2.3,10.9,3.3,16,3.3c9.2,0,31.9-6.1,31.9-36V53.5c0-2.8-0.3-5.1-1.2-6.7
	C165,45.2,163.4,44.2,161.1,43.8z M94,138.4c-2-4.5-3-9.9-3.1-16.2V51.5c0.1-2-0.1-3.6-0.6-4.7c-0.5-1.2-1.5-2.2-3.2-3l15.9,0.1
	c-1.7,0.8-2.8,1.7-3.2,2.8C99.2,48,99,49.5,99,51.5v69.8c0,1,0.1,2.1,0.1,3.1l0,1.2C99.2,128.5,98.1,133.6,94,138.4z"/>
</svg>
